<svg xmlns="http://www.w3.org/2000/svg" width="24" height="23.998" viewBox="0 0 24 23.998">
    <g>
        <g>
            <path fill="#553192" d="M11.986 0A12.018 12.018 0 0 0 10.7.07a11.327 11.327 0 0 0-1.163.186L9.315.3A12 12 0 0 0 3.4 3.619q-.225.231-.441.475a12.014 12.014 0 0 0 17.619 16.317q.225-.231.441-.475A12.013 12.013 0 0 0 11.986 0zM3.929 4.22c.063-.066.129-.129.193-.192s.149-.147.225-.218.136-.123.2-.183.154-.137.233-.2l.213-.172c.072-.057.16-.128.243-.19s.147-.108.221-.16.166-.12.251-.175l.229-.15c.077-.05.172-.109.259-.16s.157-.093.236-.138.178-.1.267-.148L6.944 2c.091-.046.183-.091.276-.134s.163-.076.246-.112l.285-.12.249-.1c.084-.033.2-.071.293-.106s.167-.058.252-.086.2-.062.3-.091c.084-.024.168-.05.253-.072l.1-.024a9.937 9.937 0 0 0-2.561 4.161A13.45 13.45 0 0 1 3.893 4.26zm-.576.645a13.914 13.914 0 0 0 3.04 1.209 20.781 20.781 0 0 0-.809 5.54H.782a11.189 11.189 0 0 1 2.571-6.749zm0 14.3a11.19 11.19 0 0 1-2.571-6.75h4.8a20.779 20.779 0 0 0 .809 5.54 13.923 13.923 0 0 0-3.038 1.21zM9.1 22.848c-.081-.02-.165-.047-.248-.071-.1-.03-.2-.059-.3-.092-.084-.027-.168-.056-.251-.086-.1-.034-.2-.069-.294-.106s-.165-.065-.248-.1l-.286-.12q-.123-.054-.244-.111l-.28-.135c-.094-.046-.16-.08-.24-.124l-.27-.149c-.09-.049-.156-.09-.233-.137s-.175-.107-.261-.163l-.227-.148c-.075-.048-.17-.118-.253-.178s-.147-.1-.219-.16-.164-.127-.245-.192l-.211-.171c-.07-.058-.157-.136-.235-.2s-.137-.12-.2-.182-.151-.145-.225-.219-.13-.127-.193-.192l-.034-.037a13.441 13.441 0 0 1 2.744-1.056 9.939 9.939 0 0 0 2.559 4.156zm2.489.348c-1.714-.243-3.216-2.032-4.161-4.673a20.351 20.351 0 0 1 4.161-.49V23.2zm0-5.964a21.089 21.089 0 0 0-4.412.526 20.034 20.034 0 0 1-.789-5.343h5.2v4.817zm0-5.618h-5.2a20.03 20.03 0 0 1 .789-5.343 21.1 21.1 0 0 0 4.412.526zm0-5.618a20.33 20.33 0 0 1-4.161-.49c.942-2.64 2.444-4.429 4.158-4.672V6zm9.033-1.132a11.19 11.19 0 0 1 2.571 6.75h-4.8a20.779 20.779 0 0 0-.809-5.54 13.928 13.928 0 0 0 3.035-1.209zm-5.75-3.682c.084.021.168.047.251.072.1.03.2.059.3.092.084.027.168.056.251.086.1.034.2.069.294.106s.165.065.248.1l.286.12q.123.054.244.111l.28.135c.094.046.16.08.24.124l.27.149c.09.049.156.09.233.137s.175.107.261.163l.227.148c.075.048.169.117.253.177s.147.105.219.16l.245.191c.082.064.141.112.211.171s.157.136.235.2.137.12.2.182.151.145.225.219.13.127.193.192l.034.037a13.441 13.441 0 0 1-2.744 1.056 9.938 9.938 0 0 0-2.563-4.156zM12.387.834c1.714.243 3.216 2.032 4.161 4.673A20.351 20.351 0 0 1 12.387 6V.834zm0 5.964a21.089 21.089 0 0 0 4.413-.527 20.034 20.034 0 0 1 .789 5.343h-5.2zm0 5.618h5.2a20.03 20.03 0 0 1-.789 5.343 21.1 21.1 0 0 0-4.412-.526zm0 10.781v-5.164a20.33 20.33 0 0 1 4.161.49c-.948 2.641-2.448 4.43-4.161 4.677zm7.656-3.386c-.063.065-.129.128-.193.192s-.149.147-.225.219-.135.12-.2.182-.155.138-.234.2-.141.115-.213.172-.16.128-.243.19-.147.108-.221.16-.166.12-.251.175l-.229.15c-.077.05-.172.109-.259.16l-.235.138q-.133.076-.268.148l-.24.125c-.091.046-.183.091-.276.134s-.163.076-.246.112l-.285.12-.249.1c-.084.033-.2.072-.294.106l-.251.086c-.1.032-.2.062-.3.091-.084.025-.168.05-.252.072l-.1.024a9.937 9.937 0 0 0 2.559-4.156 13.45 13.45 0 0 1 2.744 1.056c-.016.017-.027.033-.039.043zm.576-.645a13.914 13.914 0 0 0-3.039-1.209 20.781 20.781 0 0 0 .809-5.54h4.8a11.188 11.188 0 0 1-2.57 6.748z" transform="translate(0 -0.001)"/>
        </g>
    </g>
</svg>
